<svg width="1200" height="630" viewBox="0 0 1200 630" fill="none" xmlns="http://www.w3.org/2000/svg" role="img" aria-labelledby="title desc">
  <title id="title">OpenZaps</title>
  <desc id="desc">OpenZaps logo lockup on a dark protocol landing poster.</desc>
  <defs>
    <radialGradient id="bg1" cx="0" cy="0" r="1" gradientUnits="userSpaceOnUse" gradientTransform="translate(271 126) rotate(44) scale(469 361)">
      <stop stop-color="#6B5CFF" stop-opacity="0.55"/>
      <stop offset="1" stop-color="#08090A" stop-opacity="0"/>
    </radialGradient>
    <radialGradient id="bg2" cx="0" cy="0" r="1" gradientUnits="userSpaceOnUse" gradientTransform="translate(965 116) rotate(123) scale(382 333)">
      <stop stop-color="#21D07A" stop-opacity="0.32"/>
      <stop offset="1" stop-color="#08090A" stop-opacity="0"/>
    </radialGradient>
    <linearGradient id="ring" x1="148" y1="137" x2="389" y2="401" gradientUnits="userSpaceOnUse">
      <stop stop-color="#8EA0FF"/>
      <stop offset="0.48" stop-color="#6B5CFF"/>
      <stop offset="1" stop-color="#21D07A"/>
    </linearGradient>
    <linearGradient id="bolt" x1="300" y1="150" x2="199" y2="404" gradientUnits="userSpaceOnUse">
      <stop stop-color="#F7F8F8"/>
      <stop offset="0.48" stop-color="#C8D0FF"/>
      <stop offset="1" stop-color="#37F09A"/>
    </linearGradient>
  </defs>
  <rect width="1200" height="630" fill="#08090A"/>
  <rect width="1200" height="630" fill="url(#bg1)"/>
  <rect width="1200" height="630" fill="url(#bg2)"/>
  <rect x="60" y="60" width="1080" height="510" rx="42" fill="rgba(255,255,255,0.035)" stroke="rgba(255,255,255,0.09)"/>
  <g transform="translate(88 70) scale(0.86)">
    <path d="M257 74C357.516 74 439 155.484 439 256C439 356.516 357.516 438 257 438C156.484 438 75 356.516 75 256C75 175.835 126.851 107.779 198.866 83.521" stroke="url(#ring)" stroke-width="38" stroke-linecap="round"/>
    <path d="M342 68L407 111" stroke="#08090A" stroke-width="54" stroke-linecap="round"/>
    <path d="M302 104L169 277H244L207 410L346 223H265L302 104Z" fill="url(#bolt)" stroke="#08090A" stroke-width="18" stroke-linejoin="round"/>
    <path d="M302 104L169 277H244L207 410L346 223H265L302 104Z" stroke="rgba(255,255,255,0.72)" stroke-width="4" stroke-linejoin="round"/>
  </g>
  <g transform="translate(512 108)">
    <rect width="392" height="48" rx="24" fill="rgba(33,208,122,0.1)" stroke="rgba(55,240,154,0.42)"/>
    <circle cx="29" cy="24" r="6" fill="#37F09A"/>
    <text x="50" y="32" fill="#37F09A" font-family="ui-monospace, SFMono-Regular, Menlo, monospace" font-size="20" font-weight="500" letter-spacing="0.6">0xZAPS live on Clanker</text>
  </g>
  <text x="510" y="288" fill="#F7F8F8" font-family="Inter, Arial, sans-serif" font-size="92" font-weight="600" letter-spacing="-5">OpenZaps</text>
  <text x="516" y="352" fill="#D0D6E0" font-family="Inter, Arial, sans-serif" font-size="31" font-weight="400" letter-spacing="-0.6">Immutable intent lockers for agent-triggered DeFi.</text>
  <text x="516" y="414" fill="#8EA0FF" font-family="ui-monospace, SFMono-Regular, Menlo, monospace" font-size="18" font-weight="500" letter-spacing="0.8">0xZAPS • CLANKER • ROBINHOOD CHAIN • BOUNDED DEFI</text>
</svg>
