<svg xmlns="http://www.w3.org/2000/svg" viewBox="0 0 1200 630"><rect width="1200" height="630" fill="#060807"/><line x1="0" y1="0" x2="1200" y2="0" stroke="#eef2ef" stroke-opacity="0.05" stroke-width="1"/><line x1="0" y1="9" x2="1200" y2="9" stroke="#eef2ef" stroke-opacity="0.05" stroke-width="1"/><line x1="0" y1="18" x2="1200" y2="18" stroke="#eef2ef" stroke-opacity="0.05" stroke-width="1"/><line x1="0" y1="27" x2="1200" y2="27" stroke="#eef2ef" stroke-opacity="0.05" stroke-width="1"/><line x1="0" y1="36" x2="1200" y2="36" stroke="#eef2ef" stroke-opacity="0.05" stroke-width="1"/><line x1="0" y1="45" x2="1200" y2="45" stroke="#eef2ef" stroke-opacity="0.05" stroke-width="1"/><line x1="0" y1="54" x2="1200" y2="54" stroke="#eef2ef" stroke-opacity="0.05" stroke-width="1"/><line x1="0" y1="63" x2="1200" y2="63" stroke="#eef2ef" stroke-opacity="0.05" stroke-width="1"/><line x1="0" y1="72" x2="1200" y2="72" stroke="#eef2ef" stroke-opacity="0.05" stroke-width="1"/><line x1="0" y1="81" x2="1200" y2="81" stroke="#eef2ef" stroke-opacity="0.05" stroke-width="1"/><line x1="0" y1="90" x2="1200" y2="90" stroke="#eef2ef" stroke-opacity="0.05" stroke-width="1"/><line x1="0" y1="99" x2="1200" y2="99" stroke="#eef2ef" stroke-opacity="0.05" stroke-width="1"/><line x1="0" y1="108" x2="1200" y2="108" stroke="#eef2ef" stroke-opacity="0.05" stroke-width="1"/><line x1="0" y1="117" x2="1200" y2="117" stroke="#eef2ef" stroke-opacity="0.05" stroke-width="1"/><line x1="0" y1="126" x2="1200" y2="126" stroke="#eef2ef" stroke-opacity="0.05" stroke-width="1"/><line x1="0" y1="135" x2="1200" y2="135" stroke="#eef2ef" stroke-opacity="0.05" stroke-width="1"/><line x1="0" y1="144" x2="1200" y2="144" stroke="#eef2ef" stroke-opacity="0.05" stroke-width="1"/><line x1="0" y1="153" x2="1200" y2="153" stroke="#eef2ef" stroke-opacity="0.05" stroke-width="1"/><line x1="0" y1="162" x2="1200" y2="162" stroke="#eef2ef" stroke-opacity="0.05" stroke-width="1"/><line x1="0" y1="171" x2="1200" y2="171" stroke="#eef2ef" stroke-opacity="0.05" stroke-width="1"/><line x1="0" y1="180" x2="1200" y2="180" stroke="#eef2ef" stroke-opacity="0.05" stroke-width="1"/><line x1="0" y1="189" x2="1200" y2="189" stroke="#eef2ef" stroke-opacity="0.05" stroke-width="1"/><line x1="0" y1="198" x2="1200" y2="198" stroke="#eef2ef" stroke-opacity="0.05" stroke-width="1"/><line x1="0" y1="207" x2="1200" y2="207" stroke="#eef2ef" stroke-opacity="0.05" stroke-width="1"/><line x1="0" y1="216" x2="1200" y2="216" stroke="#eef2ef" stroke-opacity="0.05" stroke-width="1"/><line x1="0" y1="225" x2="1200" y2="225" stroke="#eef2ef" stroke-opacity="0.05" stroke-width="1"/><line x1="0" y1="234" x2="1200" y2="234" stroke="#eef2ef" stroke-opacity="0.05" stroke-width="1"/><line x1="0" y1="243" x2="1200" y2="243" stroke="#eef2ef" stroke-opacity="0.05" stroke-width="1"/><line x1="0" y1="252" x2="1200" y2="252" stroke="#eef2ef" stroke-opacity="0.05" stroke-width="1"/><line x1="0" y1="261" x2="1200" y2="261" stroke="#eef2ef" stroke-opacity="0.05" stroke-width="1"/><line x1="0" y1="270" x2="1200" y2="270" stroke="#eef2ef" stroke-opacity="0.05" stroke-width="1"/><line x1="0" y1="279" x2="1200" y2="279" stroke="#eef2ef" stroke-opacity="0.05" stroke-width="1"/><line x1="0" y1="288" x2="1200" y2="288" stroke="#eef2ef" stroke-opacity="0.05" stroke-width="1"/><line x1="0" y1="297" x2="1200" y2="297" stroke="#eef2ef" stroke-opacity="0.05" stroke-width="1"/><line x1="0" y1="306" x2="1200" y2="306" stroke="#eef2ef" stroke-opacity="0.05" stroke-width="1"/><line x1="0" y1="315" x2="1200" y2="315" stroke="#eef2ef" stroke-opacity="0.05" stroke-width="1"/><line x1="0" y1="324" x2="1200" y2="324" stroke="#eef2ef" stroke-opacity="0.05" stroke-width="1"/><line x1="0" y1="333" x2="1200" y2="333" stroke="#eef2ef" stroke-opacity="0.05" stroke-width="1"/><line x1="0" y1="342" x2="1200" y2="342" stroke="#eef2ef" stroke-opacity="0.05" stroke-width="1"/><line x1="0" y1="351" x2="1200" y2="351" stroke="#eef2ef" stroke-opacity="0.05" stroke-width="1"/><line x1="0" y1="360" x2="1200" y2="360" stroke="#eef2ef" stroke-opacity="0.05" stroke-width="1"/><line x1="0" y1="369" x2="1200" y2="369" stroke="#eef2ef" stroke-opacity="0.05" stroke-width="1"/><line x1="0" y1="378" x2="1200" y2="378" stroke="#eef2ef" stroke-opacity="0.05" stroke-width="1"/><line x1="0" y1="387" x2="1200" y2="387" stroke="#eef2ef" stroke-opacity="0.05" stroke-width="1"/><line x1="0" y1="396" x2="1200" y2="396" stroke="#eef2ef" stroke-opacity="0.05" stroke-width="1"/><line x1="0" y1="405" x2="1200" y2="405" stroke="#eef2ef" stroke-opacity="0.05" stroke-width="1"/><line x1="0" y1="414" x2="1200" y2="414" stroke="#eef2ef" stroke-opacity="0.05" stroke-width="1"/><line x1="0" y1="423" x2="1200" y2="423" stroke="#eef2ef" stroke-opacity="0.05" stroke-width="1"/><line x1="0" y1="432" x2="1200" y2="432" stroke="#eef2ef" stroke-opacity="0.05" stroke-width="1"/><line x1="0" y1="441" x2="1200" y2="441" stroke="#eef2ef" stroke-opacity="0.05" stroke-width="1"/><line x1="0" y1="450" x2="1200" y2="450" stroke="#eef2ef" stroke-opacity="0.05" stroke-width="1"/><line x1="0" y1="459" x2="1200" y2="459" stroke="#eef2ef" stroke-opacity="0.05" stroke-width="1"/><line x1="0" y1="468" x2="1200" y2="468" stroke="#eef2ef" stroke-opacity="0.05" stroke-width="1"/><line x1="0" y1="477" x2="1200" y2="477" stroke="#eef2ef" stroke-opacity="0.05" stroke-width="1"/><line x1="0" y1="486" x2="1200" y2="486" stroke="#eef2ef" stroke-opacity="0.05" stroke-width="1"/><line x1="0" y1="495" x2="1200" y2="495" stroke="#eef2ef" stroke-opacity="0.05" stroke-width="1"/><line x1="0" y1="504" x2="1200" y2="504" stroke="#eef2ef" stroke-opacity="0.05" stroke-width="1"/><line x1="0" y1="513" x2="1200" y2="513" stroke="#eef2ef" stroke-opacity="0.05" stroke-width="1"/><line x1="0" y1="522" x2="1200" y2="522" stroke="#eef2ef" stroke-opacity="0.05" stroke-width="1"/><line x1="0" y1="531" x2="1200" y2="531" stroke="#eef2ef" stroke-opacity="0.05" stroke-width="1"/><line x1="0" y1="540" x2="1200" y2="540" stroke="#eef2ef" stroke-opacity="0.05" stroke-width="1"/><line x1="0" y1="549" x2="1200" y2="549" stroke="#eef2ef" stroke-opacity="0.05" stroke-width="1"/><line x1="0" y1="558" x2="1200" y2="558" stroke="#eef2ef" stroke-opacity="0.05" stroke-width="1"/><line x1="0" y1="567" x2="1200" y2="567" stroke="#eef2ef" stroke-opacity="0.05" stroke-width="1"/><line x1="0" y1="576" x2="1200" y2="576" stroke="#eef2ef" stroke-opacity="0.05" stroke-width="1"/><line x1="0" y1="585" x2="1200" y2="585" stroke="#eef2ef" stroke-opacity="0.05" stroke-width="1"/><line x1="0" y1="594" x2="1200" y2="594" stroke="#eef2ef" stroke-opacity="0.05" stroke-width="1"/><line x1="0" y1="603" x2="1200" y2="603" stroke="#eef2ef" stroke-opacity="0.05" stroke-width="1"/><line x1="0" y1="612" x2="1200" y2="612" stroke="#eef2ef" stroke-opacity="0.05" stroke-width="1"/><line x1="0" y1="621" x2="1200" y2="621" stroke="#eef2ef" stroke-opacity="0.05" stroke-width="1"/><g transform="translate(793.333 80.000) scale(3.13333)" fill="#ccf83f"><rect x="62.345" y="5.291" width="1.010" height="3.873" rx="0.900"/><rect x="59.035" y="11.745" width="3.029" height="3.873" rx="0.900"/><rect x="55.725" y="18.200" width="5.048" height="3.873" rx="0.900"/><rect x="52.415" y="24.655" width="7.067" height="3.873" rx="0.900"/><rect x="49.105" y="31.109" width="9.086" height="3.873" rx="0.900"/><rect x="45.795" y="37.564" width="11.105" height="3.873" rx="0.900"/><rect x="42.485" y="44.018" width="13.124" height="3.873" rx="0.900"/><rect x="39.175" y="50.473" width="15.143" height="3.873" rx="0.900"/><rect x="35.865" y="56.927" width="17.162" height="3.873" rx="0.900"/><rect x="32.555" y="63.382" width="44.867" height="3.873" rx="0.900"/><rect x="29.245" y="69.836" width="45.343" height="3.873" rx="0.900"/><rect x="25.935" y="76.291" width="45.819" height="3.873" rx="0.900"/><rect x="49.665" y="82.745" width="19.255" height="3.873" rx="0.900"/><rect x="48.858" y="89.200" width="17.229" height="3.873" rx="0.900"/><rect x="48.051" y="95.655" width="15.202" height="3.873" rx="0.900"/><rect x="47.244" y="102.109" width="13.175" height="3.873" rx="0.900"/><rect x="46.438" y="108.564" width="11.148" height="3.873" rx="0.900"/><rect x="45.631" y="115.018" width="9.121" height="3.873" rx="0.900"/><rect x="44.824" y="121.473" width="7.094" height="3.873" rx="0.900"/><rect x="44.017" y="127.927" width="5.067" height="3.873" rx="0.900"/><rect x="43.210" y="134.382" width="3.040" height="3.873" rx="0.900"/><rect x="42.403" y="140.836" width="1.013" height="3.873" rx="0.900"/></g><rect x="84" y="120" width="46" height="2" fill="#ccf83f"/><text x="84" y="150" font-family="Menlo, monospace" font-size="24" letter-spacing="6" fill="#ccf83f">BOUNDED EXECUTION ON ROBINHOOD CHAIN</text><text x="84" y="250" font-family="Helvetica Neue, Arial, sans-serif" font-weight="800" font-size="72" letter-spacing="-3" fill="#eef2ef">A zap cannot do</text><text x="84" y="332" font-family="Helvetica Neue, Arial, sans-serif" font-weight="800" font-size="72" letter-spacing="-3" fill="#eef2ef">anything it was</text><text x="84" y="414" font-family="Helvetica Neue, Arial, sans-serif" font-weight="800" font-size="72" letter-spacing="-3" fill="#eef2ef">not signed to do.</text><text x="84" y="560" font-family="Helvetica Neue, Arial, sans-serif" font-weight="800" font-size="30" letter-spacing="-1" fill="#eef2ef">open<tspan fill="#ccf83f">zaps</tspan></text><text x="284" y="560" font-family="Menlo, monospace" font-size="22" letter-spacing="2" fill="#9aa79f">0xzaps.com</text></svg>
