<svg xmlns="http://www.w3.org/2000/svg" viewBox="0 0 512 512" role="img" aria-label="OpenZaps">
  <rect width="512" height="512" fill="#050505"/>
  <g transform="translate(121.333 54.000) scale(2.69333)" fill="#fffc00">
    <rect x="62.345" y="5.291" width="1.010" height="3.873" rx="0.900"/>
    <rect x="59.035" y="11.745" width="3.029" height="3.873" rx="0.900"/>
    <rect x="55.725" y="18.200" width="5.048" height="3.873" rx="0.900"/>
    <rect x="52.415" y="24.655" width="7.067" height="3.873" rx="0.900"/>
    <rect x="49.105" y="31.109" width="9.086" height="3.873" rx="0.900"/>
    <rect x="45.795" y="37.564" width="11.105" height="3.873" rx="0.900"/>
    <rect x="42.485" y="44.018" width="13.124" height="3.873" rx="0.900"/>
    <rect x="39.175" y="50.473" width="15.143" height="3.873" rx="0.900"/>
    <rect x="35.865" y="56.927" width="17.162" height="3.873" rx="0.900"/>
    <rect x="32.555" y="63.382" width="44.867" height="3.873" rx="0.900"/>
    <rect x="29.245" y="69.836" width="45.343" height="3.873" rx="0.900"/>
    <rect x="25.935" y="76.291" width="45.819" height="3.873" rx="0.900"/>
    <rect x="49.665" y="82.745" width="19.255" height="3.873" rx="0.900"/>
    <rect x="48.858" y="89.200" width="17.229" height="3.873" rx="0.900"/>
    <rect x="48.051" y="95.655" width="15.202" height="3.873" rx="0.900"/>
    <rect x="47.244" y="102.109" width="13.175" height="3.873" rx="0.900"/>
    <rect x="46.438" y="108.564" width="11.148" height="3.873" rx="0.900"/>
    <rect x="45.631" y="115.018" width="9.121" height="3.873" rx="0.900"/>
    <rect x="44.824" y="121.473" width="7.094" height="3.873" rx="0.900"/>
    <rect x="44.017" y="127.927" width="5.067" height="3.873" rx="0.900"/>
    <rect x="43.210" y="134.382" width="3.040" height="3.873" rx="0.900"/>
    <rect x="42.403" y="140.836" width="1.013" height="3.873" rx="0.900"/>
  </g>
</svg>
